# xmcd
#
# Track frame offsets:
#	150
#	17802
#	34780
#	49930
#	67042
#	85157
#	101590
#	119292
#	136692
#	156927
#	175890
#	194265
#	210552
#	227637
#
# Disc length: 3369 seconds
#
# Revision: 1
# Processed by: cddbd v1.5.1PL0 Copyright (c) Steve Scherf et al.
# Submitted via: CDex 1.50Beta5
#
DISCID=ba0d270e
DTITLE=海援隊 - EPILOGUE
DYEAR=1900
DGENRE=Pop
TTITLE0=心が風邪をひいたようで
TTITLE1=恋不思議
TTITLE2=JODAN JODAN
TTITLE3=心のかたち
TTITLE4=俺の人生真ん中あたり
TTITLE5=こらえちゃっときない
TTITLE6=漂流船
TTITLE7=えきすとら
TTITLE8=思えば遠くへ来たもんだ
TTITLE9=故郷未だ忘れ難く
TTITLE10=贈る言葉
TTITLE11=人として
TTITLE12=遙かなる人
TTITLE13=誰もいないからそこを歩く
EXTD=
EXTT0=
EXTT1=
EXTT2=
EXTT3=
EXTT4=
EXTT5=
EXTT6=
EXTT7=
EXTT8=
EXTT9=
EXTT10=
EXTT11=
EXTT12=
EXTT13=
PLAYORDER=
